<?xml version="1.0" encoding="utf-8"?>
<!-- Generator: Adobe Illustrator 27.2.0, SVG Export Plug-In . SVG Version: 6.00 Build 0)  -->
<svg version="1.1" id="Layer_1" xmlns="http://www.w3.org/2000/svg" xmlns:xlink="http://www.w3.org/1999/xlink" x="0px" y="0px"
	 viewBox="0 0 512 472" style="enable-background:new 0 0 512 472;" xml:space="preserve">
<g transform="translate(0.000000,5000.000000) scale(0.100000,-0.100000)">
	<path d="M2536.2,49986.5c-147.7-86.9-394.2-229.3-542.3-315.6c-0.4-90.9-0.6-486.9-2.1-508.1c-70.6,36.7-351.2,207.3-437.9,252.3
		c-181.5-106-396.2-230.5-587.2-341.4c-0.3-70.2,0.8-412.2-1.9-416.3c-29,14.9-327,190.5-355.9,206.4
		c-143.3-82.8-430.8-244.2-608.6-355.9v-18.3c1.4,1.7-1.9-890.8,1-887.8c71.9-50.7,512.2-299.4,618.1-363.2
		c16.2-291-33.9-2100,24.1-1948c98.2,56.1,213.8,123.5,334,193.5c531.4,309.7,1056.2,612.8,1581.3,920.2
		c581.3-334.5,1298.2-754.1,1899.2-1102.7c20.4-12.2,37.8-22,38.6-22c1,0,1.4,439.6,1,976.9c-0.4,855.4,0,977.3,2.3,979.8
		c79.3,51.5,487.7,281.1,620.4,364.2c-0.3,165,0.3,868.4-2.1,909.8c-140.3,88.3-339.2,199.8-543.2,318.9
		c-0.3-1.3-63.1,35.3-63.1,34.7c-0.6,0-29.5-16.6-64.2-37c-76.2-43-218.5-128.7-290.3-168.4c-5.8-36.5-2.8,355.4-3.5,416.7
		l-10.2,5.6c-0.4,0.2-0.9,0.5-1.4,0.8c-17.4,9-471.2,274.8-576.4,333.9c-134-74.9-301.4-175.4-435.4-252.7
		c-0.7,86-0.9,505.3-3.9,509.1c-71.6,42.8-106.7,61.3-312.5,181.7c-71.4,41.2-186.6,108.7-252.1,146.6
		C2561.3,50000,2549.9,49993.8,2536.2,49986.5z M2592.1,49921.3c104.4-59.9,429-247.3,480.1-280.1c0.2-212.7,0.5-640.8,0.6-853.4
		c150.2-86.7,351.2-206.3,521-301.1c1.8-8.6,0.8,902.8,4.8,857.5c151.5-84.6,347.3-201.3,497.9-288.4c0.1-214.9,0.3-647.4,0.6-862.3
		c116.2-74.7,303.4-175.3,447-261.2c0.5,153.1,1.3,815.2,3.3,851.7c1.5,1.3,23.7-10.8,90.9-50.2c135.9-78.8,230.8-134.8,370.8-216.2
		c32-18.5,50.9-30.3,53-32.8c2.8,2.4,1.1-719.9,1-862.1c-174.8-101.8-457.9-266.1-620.2-360.5c-0.3-338.3,0.7-1809.2-1.5-1888.8
		c-38.8,19.1-94.8,55.8-246.3,142.6c-532.6,309.4-1155.7,672.4-1635.9,951.6c-0.8,352.9,0.2,2118.5-2.9,2124.3
		c-117.4-64.8-214-124.5-375.2-217c-521.4-306.6-1048.1-602.9-1561.6-911.7c-0.2-28.1,0.8-163.7-1.9-165.7c-1,0-8.1,3.9-15.8,8.5
		c-47.2,31.6-494.8,281.2-547.1,322.5c162,95.4,439.4,254.7,571.6,332.2c0.1,150.6,0.7,798.5,1.7,835.1
		c36.3-12.9,231-134.1,337.8-193.7c0.4-79.1,0.5-423.9,1.9-442.3c75.8,43.1,467.5,271.7,612.5,355.5c0.4,133.6-1.2,842.6,2.1,830.9
		c78.7-43.6,330.3-191.8,408.6-237.9c2.1-1.9,2.5-30.3,1.7-177.5c-0.6-148.7-0.4-175,1.9-174c176.3,101.9,421.9,245,563.7,327.4
		c0.1,150-0.6,827.1,1.7,854.2C2560.9,49938.3,2575.4,49930.6,2592.1,49921.3z M1780.4,47526.5l-0.6-179.6
		c-18-10.5-90.7-53.5-96.6-55.4c-2.1,0-21.8,11.2-142.6,80.6c-49,28-168.3,95.8-170.7,99.2c20.2,14.7,147.2,84.7,210.3,122.1
		c59.2,34.3,125.7,72.1,181.3,104.6c7.9,4.4,15.6,8.3,17,8.3C1780.4,47706.3,1780.8,47669.7,1780.4,47526.5z M1388.2,47399.2
		c141.9-81.4,163.1-93.8,266.2-153c0.1-90-0.9-595.8-1-775.7c-110.6-60.7-255.3-152.3-307.1-173.8c0.8,3.3-6.9,1127.3,2.1,1125.2
		C1349,47421.6,1367,47411.4,1388.2,47399.2z"/>
	<path d="M3339.8,47526.5l0.6-180l47.8-27.8c44.9-26,48.2-27.6,53-25.5c4.6,2.1,13.7,7.3,59.2,33.6c7.5,4.4,19.1,11,26,14.9
		c6.9,3.9,21.2,12.2,31.8,18.3c33.2,19.3,173.2,99.7,182.7,104.9c5,2.7,9.3,5.6,9.3,6.2c0,0.8-13.7,9.1-30.3,18.7
		c-16.8,9.5-55.2,31.6-85.5,49c-239.2,137.7-291.1,167.4-293,167.4C3340,47706.3,3339.7,47658.3,3339.8,47526.5z"/>
	<path d="M3711.8,47387.6c-120-68.9-136.8-78.5-189-108.4c-29.1-16.8-53.8-31.2-54.8-32c-1-1-1.5-168.6-1.5-389.1
		c0.2-314.1,0.8-387.6,2.7-388.9c6-3.5,70-40.5,238.8-137.5c44.4-25.5,65-36.5,66-34.9c1.9,3.1,1.9,1123.5,0,1124.8
		C3773.1,47422,3745.1,47406.7,3711.8,47387.6z"/>
</g>
</svg> 
